<?xml version="1.0" encoding="UTF-8" standalone="no"?>
<svg
   xmlns:dc="http://purl.org/dc/elements/1.1/"
   xmlns:cc="http://creativecommons.org/ns#"
   xmlns:rdf="http://www.w3.org/1999/02/22-rdf-syntax-ns#"
   xmlns:svg="http://www.w3.org/2000/svg"
   xmlns="http://www.w3.org/2000/svg"
   xmlns:sodipodi="http://sodipodi.sourceforge.net/DTD/sodipodi-0.dtd"
   xmlns:inkscape="http://www.inkscape.org/namespaces/inkscape"
   width="322"
   height="70"
   version="1.1"
   id="svg5129"
   sodipodi:docname="logo_teal.svg"
   inkscape:version="0.92.4 (33fec40, 2019-01-16)">
  <metadata
     id="metadata5133">
    <rdf:RDF>
      <cc:Work
         rdf:about="">
        <dc:format>image/svg+xml</dc:format>
        <dc:type
           rdf:resource="http://purl.org/dc/dcmitype/StillImage" />
        <dc:title />
      </cc:Work>
    </rdf:RDF>
  </metadata>
  <sodipodi:namedview
     pagecolor="#ffffff"
     bordercolor="#666666"
     borderopacity="1"
     objecttolerance="10"
     gridtolerance="10"
     guidetolerance="10"
     inkscape:pageopacity="0"
     inkscape:pageshadow="2"
     inkscape:window-width="1600"
     inkscape:window-height="836"
     id="namedview5131"
     showgrid="false"
     inkscape:zoom="1.2826087"
     inkscape:cx="-29.237288"
     inkscape:cy="35"
     inkscape:window-x="0"
     inkscape:window-y="27"
     inkscape:window-maximized="1"
     inkscape:current-layer="svg5129" />
  <defs
     id="SvgjsDefs3592" />
  <g
     id="SvgjsG3593"
     featurekey="root"
     fill="#2c83a8" />
  <g
     id="SvgjsG3594"
     featurekey="symbol1"
     fill="#77f2f0"
     transform="matrix(1.4583333333333333,0,0,1.4583333333333333,-23.333333333333332,-23.333333333333332)"
     style="fill:#77e2f0;fill-opacity:1">
    <g
       id="SvgjsG3595"
       style="fill:#77e2f0;fill-opacity:1">
      <g
         id="g5122"
         style="fill:#77e2f0;fill-opacity:1">
        <g
           id="g5120"
           style="fill:#77e2f0;fill-opacity:1">
          <path
             d="M64,29.5499878c0,3.1699829-2.5100098,5.75-5.5900269,5.75c-1.7399902,0-3.2999878-0.8200073-4.3300171-2.1199951    l-7.4799805,4.75c0.4500122,0.9400024,0.6900024,2,0.6900024,3.1199951c0,2.4400024-1.1699829,4.5999756-2.9699707,5.9099731    l0.8199463,6.6900024c0.0400391-0.0100098,0.0900269-0.0100098,0.1400146-0.0100098    c2.7800293,0,5.0400391,2.3200073,5.0400391,5.1800537C50.3200073,61.6799927,48.0599976,64,45.2799683,64    c-2.7799683,0-5.039978-2.3200073-5.039978-5.1799927c0-2.0900269,1.2000122-3.8900146,2.9400024-4.7000122l-0.75-6.1699829    C41.7399902,48.1900024,41,48.3200073,40.2299805,48.3200073c-1.460022,0-2.8200073-0.460022-3.9500122-1.25l-8.1900024,8.6399536    c0.6500244,0.8699951,1.0200195,1.9400024,1.0200195,3.1100464C29.1099854,61.6799927,26.8499756,64,24.0700073,64    c-2.7800293,0-5.0400391-2.3200073-5.0400391-5.1799927c0-2.8600464,2.2600098-5.1800537,5.0400391-5.1800537    c0.9299927,0,1.7999878,0.2600098,2.5499878,0.7200317l8.2000122-8.6500244    c-1.0300293-1.2599487-1.6500244-2.8800049-1.6500244-4.6599731c0-1.6400146,0.5299683-3.1600342,1.4299927-4.3699951    l-7.5599976-7.4100342c-1.1300049,0.8099976-2.5,1.2800293-3.9799805,1.2800293    C19.1699829,30.5499878,16,27.2799683,16,23.2699585C16,19.2600098,19.1699829,16,23.0599976,16    c3.8899536,0,7.0599976,3.2600098,7.0599976,7.2699585c0,1.7600098-0.6100464,3.3800049-1.6199951,4.6400146L35.9899902,35.25    c1.1799927-0.9299927,2.6599731-1.4800415,4.2399902-1.4800415c2.1099854,0,4,0.960022,5.289978,2.4800415l7.6100464-4.8400269    c-0.2000122-0.5800171-0.3099976-1.2099609-0.3099976-1.8599854c0-3.1699829,2.5099487-5.75,5.5899658-5.75    S64,26.3800049,64,29.5499878z"
             id="path5118"
             style="fill:#77e2f0;fill-opacity:1" />
        </g>
      </g>
    </g>
  </g>
  <g
     id="SvgjsG3596"
     featurekey="text1"
     fill="#77f2f0"
     transform="matrix(3.259976032358634,0,0,3.259976032358634,85.82723077184961,-25.598935413117303)"
     style="fill:#77e2f0;fill-opacity:1">
    <path
       d="M1.28 26 l0 -15.08 l3.92 0 l7.18 9.22 l0.04 0 l0 -9.22 l3.92 0 l0 15.08 l-3.92 0 l-7.18 -9.24 l-0.04 0 l0 9.24 l-3.92 0 z M20.771 19.38 l4.22 0 c-0.18 -0.98 -1.08 -1.62 -2.06 -1.62 c-1.06 0 -1.94 0.56 -2.16 1.62 z M28.371000000000002 21.1 l0 0.38 l-7.66 0 c0 1.48 0.78 2.28 2.28 2.28 c0.78 0 1.34 -0.26 1.74 -0.94 l3.5 0 c-0.28 1.2 -1 2.08 -1.94 2.66 s-2.1 0.86 -3.28 0.86 c-3.4 0 -5.94 -1.92 -5.94 -5.46 c0 -3.42 2.34 -5.48 5.68 -5.48 c3.56 0 5.62 2.2 5.62 5.7 z M28.982 15.74 l3.64 0 l0 5.48 c0 1.3 0.32 2.22 1.82 2.22 s1.82 -0.92 1.82 -2.22 l0 -5.48 l3.64 0 l0 6.18 c0 3.38 -2.38 4.42 -5.46 4.42 s-5.46 -1.04 -5.46 -4.42 l0 -6.18 z M44.873000000000005 15.74 l0 1.68 l0.04 0 c0.7 -1.26 1.9 -1.82 3.32 -1.82 l0.7 0 l0 3.5 c-0.5 -0.28 -0.98 -0.34 -1.54 -0.34 c-2.02 0 -2.52 1.34 -2.52 3.1 l0 4.14 l-3.64 0 l0 -10.26 l3.64 0 z M54.724 15.4 c3.3 0 6.18 1.98 6.18 5.48 c0 3.48 -2.88 5.46 -6.18 5.46 c-3.28 0 -6.18 -1.96 -6.18 -5.46 s2.88 -5.48 6.18 -5.48 z M54.724 18.56 c-1.48 0 -2.34 1.06 -2.34 2.32 c0 1.3 0.86 2.3 2.34 2.3 s2.34 -1 2.34 -2.3 c0 -1.26 -0.86 -2.32 -2.34 -2.32 z M65.195 15.74 l0 1.32 l0.04 0 c0.84 -1.24 1.86 -1.66 3.28 -1.66 c2.76 0 3.86 1.74 3.86 4.26 l0 6.34 l-3.64 0 l0 -5 c0 -0.98 0.16 -2.7 -1.64 -2.7 c-1.48 0 -1.9 1.1 -1.9 2.38 l0 5.32 l-3.64 0 l0 -10.26 l3.64 0 z"
       id="path5126"
       style="fill:#77e2f0;fill-opacity:1" />
  </g>
</svg>
